<svg width="173" height="97" viewBox="0 0 173 97" fill="none" xmlns="http://www.w3.org/2000/svg">
<path d="M90.8703 46.8029V44.7796H83.7177V48.1223H89.7704V50.1284H83.7177V53.89H90.8703V51.6188H93.7969V55.9902H79.1155V53.89H80.6172V44.7825H76.5508V42.6823H93.7969V46.8057H90.8703V46.8029Z" fill="white"/>
<path d="M99.3219 54.2319V55.9873H96.9453V51.8439H100.171C101.072 53.3913 102.622 54.1151 105.098 54.1151C107.375 54.1151 108.626 53.4483 108.626 52.3597C108.501 51.1942 108.002 51.0032 103.95 50.2794C98.7719 49.4388 97.5466 48.886 97.3956 46.4039C97.3956 44.1498 99.6468 42.4514 103.699 42.4514C106.076 42.4514 107.8 43.0442 108.877 44.2467H109.076V42.6822H111.453V46.6547H108.201C107.5 45.2213 105.925 44.5545 103.799 44.5545C101.673 44.5545 100.448 45.2811 100.448 46.2928C100.547 47.3443 100.923 47.5153 104.725 48.088C106.574 48.393 107.976 48.6979 108.951 49.0227C110.877 49.6525 111.701 50.5302 111.701 52.1545C111.701 54.7306 109.424 56.221 105.224 56.221C102.573 56.221 100.673 55.5542 99.5214 54.2348H99.3219V54.2319Z" fill="white"/>
<path d="M136.791 41.4427H134.816L127.951 55.9532H122.608L115.743 41.4427H113.734V38.7241H122.64V41.4427H120.115L125.489 53.038H125.717L131.092 41.4427H128.339V38.7241H136.791V41.4427Z" fill="white"/>
<path d="M143.756 42.4513C148.96 42.4513 151.735 44.7424 151.735 49.3247C151.735 53.9069 148.96 56.218 143.756 56.218C138.553 56.218 135.777 53.9069 135.777 49.3247C135.777 44.7424 138.553 42.4513 143.756 42.4513ZM143.756 44.5515C140.579 44.5515 138.903 46.059 138.903 49.3247C138.903 52.5904 140.579 54.1178 143.756 54.1178C146.934 54.1178 148.609 52.6103 148.609 49.3247C148.609 46.039 146.934 44.5515 143.756 44.5515Z" fill="white"/>
<path d="M170.516 53.8871V55.9873H166.113L165.612 55.2806C164.486 53.6762 163.711 52.5877 163.261 52.0349C162.386 50.9092 161.81 50.6414 160.511 50.6414H158.684V53.8871H160.36V55.9873H154.082V53.8871H155.584V44.7796H154.082V42.6794H162.936C167.114 42.6794 168.863 43.825 168.863 46.498C168.863 48.6181 167.587 49.7067 164.988 49.8406V49.9745C165.338 50.0515 165.637 50.1854 165.863 50.3763C166.113 50.5673 166.387 50.8921 166.712 51.368C167.037 51.8268 167.612 52.6675 168.413 53.8871H170.513H170.516ZM163.113 48.5611C164.914 48.5611 165.74 47.9684 165.74 46.6889C165.74 45.3324 164.965 44.7796 163.138 44.7796H158.687V48.5611H163.115H163.113Z" fill="white"/>
<path d="M92.6795 63.2425C86.3703 81.7938 68.7851 95.1758 48.1279 95.1758C22.1846 95.1758 1.08002 74.0712 1.08002 48.1279C1.08002 22.1846 22.1846 1.08002 48.1279 1.08002C70.3382 1.08002 89.0006 16.5508 93.9134 37.2821H95.0276C90.0948 15.9496 70.9394 0 48.1307 0C21.5919 0 0 21.5919 0 48.1308C0 74.6696 21.5919 96.2615 48.1307 96.2615C69.3693 96.2615 87.4361 82.4321 93.8051 63.3052C93.4289 63.2881 93.0556 63.2682 92.6823 63.2482L92.6795 63.2425Z" fill="white"/>
<path d="M89.1691 63.0431C83.0594 79.7991 66.9703 91.7933 48.1283 91.7933C24.0487 91.7933 4.46011 72.2047 4.46011 48.1251C4.46011 24.0455 24.0487 4.45692 48.1283 4.45692C68.4635 4.45692 85.5956 18.4288 90.4315 37.2765H91.4659C86.6073 17.8703 69.022 3.45099 48.1283 3.45099C23.4958 3.45099 3.45703 23.4898 3.45703 48.1223C3.45703 72.7547 23.4958 92.7935 48.1283 92.7935C67.5117 92.7935 84.0426 80.3833 90.2121 63.0944C89.8644 63.0744 89.5168 63.0573 89.1691 63.0402V63.0431Z" fill="white"/>
<path d="M86.491 62.9576C80.5295 78.3315 65.583 89.26 48.1289 89.26C25.4484 89.26 6.99687 70.8084 6.99687 48.128C6.99687 25.4476 25.4484 6.99602 48.1289 6.99602C67.0563 6.99602 83.0343 19.848 87.8075 37.2822H88.7878C83.9918 19.3208 67.5835 6.04993 48.1289 6.04993C24.9269 6.04993 6.05078 24.9261 6.05078 48.128C6.05078 71.3299 24.9269 90.2061 48.1289 90.2061C66.1045 90.2061 81.4813 78.873 87.4969 62.9776C87.1607 62.969 86.8272 62.9605 86.491 62.9576Z" fill="white"/>
<path d="M83.5727 63.0202C77.7394 76.8496 64.0554 86.584 48.1286 86.584C26.9243 86.584 9.67245 69.3322 9.67245 48.1279C9.67245 26.9236 26.9243 9.67172 48.1286 9.67172C65.5685 9.67172 80.3298 21.3411 85.0232 37.2821H85.9465C81.2246 20.8481 66.0587 8.78833 48.1286 8.78833C26.437 8.78833 8.78906 26.4363 8.78906 48.1279C8.78906 69.8195 26.437 87.4674 48.1286 87.4674C64.5712 87.4674 78.6855 77.3283 84.5558 62.9746C84.2281 62.986 83.9004 63.0003 83.5727 63.0202Z" fill="white"/>
<path d="M172.997 59.0906H117.474C101.852 59.0878 86.2301 59.0565 70.6111 59.1078C66.9863 59.1163 63.9144 57.2441 61.7885 54.2405C63.316 54.2405 64.5071 54.004 65.4874 53.6364C71.5458 51.3424 74.4809 44.6856 71.7851 39.0319C69.5653 34.3755 65.5643 32.2127 60.5432 32.1528C50.8914 32.0331 41.2368 32.1072 31.585 32.1044C30.8783 32.1015 30.2969 32.1158 29.8154 32.1699V36.7693H37.233L37.1988 56.7254H37.2045V59.085H29.8125V63.6843C29.9578 63.6929 30.1146 63.6986 30.2827 63.6957C35.9849 63.6102 48.5547 63.6615 48.9964 63.6302V59.0707L43.0834 59.1191V59.1305H41.7583V54.2263H53.0999C54.197 54.2263 55.2828 54.5027 56.2289 55.0555C57.1949 55.6226 57.9871 56.5146 58.7081 57.3581C59.3122 58.0648 59.8593 58.8199 60.4321 59.5523C62.6149 62.3535 65.9319 63.539 69.5111 63.6444C75.9713 63.8296 82.4315 64.0833 88.8888 64.0833C95.3461 64.0833 102.185 63.69 108.834 63.6815C128.892 63.653 152.941 63.653 172.999 63.6587V59.0878L172.997 59.0906ZM41.3251 50.2681V36.5242H61.3297C65.1255 36.5242 68.2003 39.599 68.2003 43.3947C68.2003 45.2955 67.4309 47.0109 66.1884 48.2534C64.946 49.4958 63.2276 50.2653 61.3297 50.2653H41.3251V50.2681Z" fill="white"/>
</svg>
